<svg xmlns="http://www.w3.org/2000/svg" viewBox="0 0 469.33 469.33"><defs/><path fill="#303c42" d="M352 42.67c-6.46 0-13.22.85-20.23 2.15C308.27 17.45 273.5 0 234.67 0s-73.61 17.44-97.1 44.82c-7.02-1.3-13.77-2.15-20.24-2.15C52.63 42.67 0 95.3 0 160c0 44.33 25 84.64 64.25 104.56l-.2 161.2a43.24 43.24 0 0012.72 30.8 43.21 43.21 0 0030.8 12.77H361.8c24 0 43.52-19.52 43.52-43.52v-161.4c39.1-19.98 64-60.22 64-104.41 0-64.7-52.63-117.33-117.33-117.33z"/><path fill="#e6e6e6" d="M361.81 448H107.56c-5.92 0-11.5-2.31-15.7-6.51a22.04 22.04 0 01-6.49-15.7l.06-41.79H384v41.81A22.22 22.22 0 01361.81 448z"/><path fill="#fff" d="M106.7 425.78l.05-41.78H85.44l-.06 41.78a22.04 22.04 0 006.5 15.7c4.2 4.2 9.77 6.52 15.7 6.52h18.16c-5.08 0-9.86-2.31-13.46-6.51a24.03 24.03 0 01-5.56-15.7z" opacity=".2"/><path d="M362.67 384v41.81c0 12.23-8.54 22.2-19.02 22.2h18.16a22.22 22.22 0 0022.2-22.2V384h-21.34z" opacity=".1"/><path fill="#f2f2f2" d="M390.6 247.8a10.46 10.46 0 00-4.87 4.03 10.53 10.53 0 00-1.73 6.08v104.76H85.46l.13-104.62a10.7 10.7 0 00-6.64-10.13A95.98 95.98 0 0121.34 160c0-52.94 43.07-96 96-96 2.07 0 4.26.25 6.4.42A127.07 127.07 0 00106.67 128a10.66 10.66 0 1021.33 0c0-58.81 47.85-106.67 106.67-106.67S341.33 69.2 341.33 128a10.66 10.66 0 1021.34 0c0-23.15-6.27-44.82-17.07-63.58 2.15-.17 4.33-.42 6.4-.42 52.94 0 96 43.06 96 96 0 38-22.52 72.44-57.4 87.8z"/><path fill="#fff" d="M234.67 34.67c48.97 0 90.13 31.03 104.67 73.6-9.3-49.4-52.62-86.94-104.67-86.94S139.3 58.87 130 108.27c14.53-42.58 55.7-73.6 104.67-73.6z" opacity=".2"/><path d="M352 64c-2.07 0-4.25.25-6.4.42l.21.42c43.32 4.3 77.52 45.08 77.52 95.16 0 38-19.91 72.44-50.76 87.8a9.92 9.92 0 00-4.3 4.03 11.41 11.41 0 00-1.54 6.08v104.76H384V257.9a10.52 10.52 0 011.74-6.07 10.45 10.45 0 014.87-4.03A96.01 96.01 0 00448 160c0-52.94-43.06-96-96-96z" opacity=".1"/><path fill="#fff" d="M102.74 256.3c-.2-1.61-.73-3.11-1.5-4.41a10.02 10.02 0 00-4.28-3.96C66 232.62 46 198.13 46 160c0-50.08 34.2-90.85 77.52-95.16.08-.13.13-.28.21-.42-2.14-.17-4.33-.42-6.4-.42-52.94 0-96 43.06-96 96a95.99 95.99 0 0057.63 87.93 10.57 10.57 0 016.53 8.38c.08.57.12 1.16.1 1.74l-.13 104.62h17.25l.12-104.62c.01-.58-.02-1.18-.1-1.75z" opacity=".2"/><g fill="#303c42"><path d="M128 224a10.66 10.66 0 10-21.33 0c0 28.01 30.9 66.47 34.41 70.77a10.69 10.69 0 0015.02 1.48 10.69 10.69 0 001.48-15.02C146.15 267.29 128 239.43 128 224zM352 213.33c-5.9 0-10.67 4.77-10.67 10.67 0 15.38-18.14 43.27-29.58 57.24a10.67 10.67 0 0016.5 13.53c3.52-4.3 34.42-42.76 34.42-70.77 0-5.9-4.77-10.67-10.67-10.67zM234.67 213.33c-5.9 0-10.67 4.77-10.67 10.67v64a10.66 10.66 0 1021.33 0v-64c0-5.9-4.77-10.67-10.66-10.67z"/></g><linearGradient id="a" x1="-67.23" x2="-46.22" y1="617.44" y2="607.64" gradientTransform="matrix(21.3333 0 0 -21.3333 1430.11 13315.22)" gradientUnits="userSpaceOnUse"><stop offset="0" stop-color="#fff" stop-opacity=".2"/><stop offset="1" stop-color="#fff" stop-opacity="0"/></linearGradient><path fill="url(#a)" d="M352 42.67c-6.46 0-13.22.85-20.23 2.15C308.27 17.45 273.5 0 234.67 0s-73.61 17.44-97.1 44.82c-7.02-1.3-13.77-2.15-20.24-2.15C52.63 42.67 0 95.3 0 160c0 44.33 25 84.64 64.25 104.56l-.2 161.2a43.24 43.24 0 0012.72 30.8 43.21 43.21 0 0030.8 12.77H361.8c24 0 43.52-19.52 43.52-43.52v-161.4c39.1-19.98 64-60.22 64-104.41 0-64.7-52.63-117.33-117.33-117.33z"/></svg>